<svg xmlns="http://www.w3.org/2000/svg" width="30.729" height="30.694" viewBox="0 0 30.729 30.694">
  <g id="Group_357" data-name="Group 357" transform="translate(1727.989 -534.319)">
    <path id="Path_85" data-name="Path 85" d="M-1697.26,547.45a1.2,1.2,0,0,1-1.253.949,1.628,1.628,0,0,1-.742-.277,9.012,9.012,0,0,0-3.6-1.415,8.9,8.9,0,0,0-6.513,1.434,11.863,11.863,0,0,0-1.074.862.559.559,0,0,0-.186.32,6.07,6.07,0,0,1-1.834,3.716,1.4,1.4,0,0,0-.091.11c.551.283,1.092.554,1.625.84a6.856,6.856,0,0,1,.684.433,1.194,1.194,0,0,1,.365,1.66,1.176,1.176,0,0,1-1.659.349,9.17,9.17,0,0,0-2.958-1.345,9.215,9.215,0,0,0-8.883,2.491,9.043,9.043,0,0,0-2.069,3.231,1.282,1.282,0,0,0,1.269,1.84c3.371-.034,6.742-.014,10.113-.012a1.208,1.208,0,0,1,1.289.938,1.129,1.129,0,0,1-1.1,1.4c-3.541,0-7.082-.005-10.623,0a3.321,3.321,0,0,1-3.07-1.89,3.76,3.76,0,0,1,0-3.437,11.521,11.521,0,0,1,6.306-6.333l.406-.175a6.073,6.073,0,0,1-1.835-5.725,5.9,5.9,0,0,1,2.611-3.876,6.136,6.136,0,0,1,9.057,2.746l2.556-1.39a6.061,6.061,0,0,1-1.794-5.733,5.964,5.964,0,0,1,2.437-3.726,6.166,6.166,0,0,1,7.929.706,6.173,6.173,0,0,1-.242,8.8c.111.053.215.1.313.151.656.358,1.333.685,1.958,1.093a3.1,3.1,0,0,1,.611.776Zm-15.726,1.187a3.722,3.722,0,0,0-3.723-3.712,3.725,3.725,0,0,0-3.716,3.721,3.74,3.74,0,0,0,3.725,3.72A3.736,3.736,0,0,0-1712.985,548.637Zm8.693-4.49a3.731,3.731,0,0,0,3.731-3.709,3.73,3.73,0,0,0-3.708-3.732,3.73,3.73,0,0,0-3.732,3.709A3.73,3.73,0,0,0-1704.293,544.147Z" fill="#fff"/>
    <path id="Path_86" data-name="Path 86" d="M-1682.556,574.275a1.363,1.363,0,0,1-1.5.965c-.988-.028-1.977-.007-3-.007v.342c0,.96,0,1.921,0,2.881a1.23,1.23,0,0,1-.424.985,1.217,1.217,0,0,1-1.271.165,1.081,1.081,0,0,1-.7-1.089c-.009-.97,0-1.94,0-2.911v-.373h-.328c-.98,0-1.961,0-2.941,0a1.163,1.163,0,0,1-1.081-.634,1.126,1.126,0,0,1,.039-1.2,1.174,1.174,0,0,1,1.06-.566h3.251V572.5c0-.951,0-1.9,0-2.851a1.209,1.209,0,0,1,1.212-1.315,1.206,1.206,0,0,1,1.188,1.308c0,1.049,0,2.1,0,3.19h.333c.891,0,1.781.023,2.671-.007a1.351,1.351,0,0,1,1.5.969Z" transform="translate(-14.703 -14.698)" fill="#fff"/>
  </g>
</svg>
